<?xml version="1.0" standalone="no"?>
<!DOCTYPE svg PUBLIC "-//W3C//DTD SVG 20010904//EN"
 "http://www.w3.org/TR/2001/REC-SVG-20010904/DTD/svg10.dtd">
<svg version="1.0" xmlns="http://www.w3.org/2000/svg"
 width="700.000000pt" height="700.000000pt" viewBox="0 0 700.000000 700.000000"
 preserveAspectRatio="xMidYMid meet">
<metadata>
Created by potrace 1.11, written by Peter Selinger 2001-2013
</metadata>
<g transform="translate(0.000000,700.000000) scale(0.100000,-0.100000)"
fill="#000000" stroke="none">
<path d="M3366 6704 c-151 -37 -289 -142 -410 -314 -44 -61 -186 -303 -186
-316 0 -1 -15 -29 -34 -61 -18 -32 -49 -87 -68 -123 -67 -123 -101 -185 -118
-215 -26 -45 -67 -120 -118 -215 -25 -47 -54 -97 -64 -112 -10 -14 -18 -29
-18 -32 0 -3 -44 -85 -98 -183 -54 -98 -116 -209 -137 -248 -154 -282 -376
-686 -402 -730 -12 -22 -29 -53 -37 -70 -9 -16 -26 -48 -38 -70 -13 -22 -45
-80 -72 -130 -27 -49 -58 -106 -69 -125 -11 -19 -36 -64 -55 -100 -33 -61
-103 -188 -159 -290 -14 -25 -44 -79 -66 -120 -22 -41 -54 -100 -72 -130 -31
-53 -61 -109 -155 -285 -24 -44 -50 -88 -58 -97 -8 -10 -12 -18 -8 -18 4 0 -5
-17 -19 -37 -14 -21 -25 -42 -25 -46 0 -5 -8 -21 -18 -35 -10 -15 -39 -65 -64
-112 -51 -95 -92 -170 -118 -215 -9 -16 -34 -61 -55 -100 -21 -38 -139 -254
-263 -480 -240 -437 -288 -531 -321 -638 -27 -89 -35 -145 -35 -247 1 -126 19
-199 77 -302 113 -201 307 -312 597 -343 78 -9 5565 -9 5632 -1 94 12 124 18
197 37 195 52 341 169 425 341 46 94 64 182 60 299 -4 182 -47 292 -266 690
-80 145 -162 296 -183 334 -21 39 -41 75 -45 80 -4 6 -27 46 -50 90 -24 44
-100 184 -170 310 -70 127 -143 261 -164 298 -20 37 -45 83 -56 102 -11 19
-36 65 -56 102 -73 134 -125 228 -134 243 -5 8 -26 47 -46 85 -20 39 -40 75
-44 80 -4 6 -23 39 -42 75 -29 53 -182 332 -333 605 -15 28 -43 79 -63 115
-19 36 -44 81 -55 100 -11 19 -33 60 -49 90 -16 30 -33 62 -39 70 -7 12 -279
506 -459 835 -29 54 -451 821 -492 895 -14 25 -51 92 -83 150 -92 168 -143
239 -239 335 -100 99 -179 148 -285 175 -81 22 -198 23 -275 4z"/>
</g>
</svg>
